<svg width="40" height="37" viewBox="0 0 40 37" fill="none" xmlns="http://www.w3.org/2000/svg">
    <path d="M20.013 0C19.1361 0 18.2599 0.298011 17.5454 0.895793L1.16442 14.6007C0.0365388 15.5442 -0.348895 17.1666 0.350928 18.4609C1.31405 20.2407 3.58483 20.6124 5.04991 19.3853L19.5198 7.28076C19.8054 7.0418 20.2206 7.0418 20.5062 7.28076L34.976 19.3853C35.5519 19.8678 36.2521 20.1019 36.9489 20.1019C37.8519 20.1019 38.7472 19.7081 39.3577 18.9426C40.4179 17.6137 40.1168 15.6507 38.8134 14.56L36.9504 13.0018V5.13989C36.9504 4.00446 36.0311 3.08333 34.8978 3.08333H32.8453C31.7113 3.08333 30.7913 4.00446 30.7913 5.13989V7.84835L22.4805 0.895793C21.7661 0.298011 20.8899 0 20.013 0ZM20.01 9.96362L3.07258 24.1292V30.8333C3.07258 34.2389 5.83029 37 9.23163 37H30.7883C34.1896 37 36.9474 34.2389 36.9474 30.8333V24.1292L20.01 9.96362ZM16.9334 21.5833H23.0925C23.9432 21.5833 24.6323 22.2732 24.6323 23.125V30.8333H15.3937V23.125C15.3937 22.2732 16.0827 21.5833 16.9334 21.5833Z"
          fill="#D2CACA"/>
</svg>
