<svg width="87" height="33" viewBox="0 0 87 33" fill="none" xmlns="http://www.w3.org/2000/svg">
<g filter="url(#filter0_d_5_92)">
<path d="M12.115 28C10.9483 28 9.89833 27.7083 8.965 27.125C8.03167 26.5183 7.29667 25.7017 6.76 24.675C6.22333 23.6483 5.955 22.4933 5.955 21.21V4.515C5.955 4.00167 6.11833 3.58167 6.445 3.255C6.77167 2.92833 7.19167 2.765 7.705 2.765C8.21833 2.765 8.63833 2.92833 8.965 3.255C9.29167 3.58167 9.455 4.00167 9.455 4.515V21.21C9.455 22.1433 9.71167 22.925 10.225 23.555C10.7383 24.185 11.3683 24.5 12.115 24.5H13.305C13.725 24.5 14.075 24.6633 14.355 24.99C14.6583 25.3167 14.81 25.7367 14.81 26.25C14.81 26.7633 14.6117 27.1833 14.215 27.51C13.8417 27.8367 13.3517 28 12.745 28H12.115ZM4.345 12.565C3.855 12.565 3.45833 12.425 3.155 12.145C2.85167 11.865 2.7 11.515 2.7 11.095C2.7 10.6283 2.85167 10.255 3.155 9.975C3.45833 9.695 3.855 9.555 4.345 9.555H12.43C12.92 9.555 13.3167 9.695 13.62 9.975C13.9233 10.255 14.075 10.6283 14.075 11.095C14.075 11.515 13.9233 11.865 13.62 12.145C13.3167 12.425 12.92 12.565 12.43 12.565H4.345ZM27.1779 28.14C25.4745 28.14 23.9462 27.72 22.5929 26.88C21.2395 26.0167 20.1662 24.8617 19.3729 23.415C18.6029 21.945 18.2179 20.2883 18.2179 18.445C18.2179 16.6017 18.6379 14.945 19.4779 13.475C20.3412 12.005 21.4962 10.85 22.9429 10.01C24.4129 9.14667 26.0579 8.715 27.8779 8.715C29.6979 8.715 31.3312 9.14667 32.7779 10.01C34.2245 10.85 35.3679 12.005 36.2079 13.475C37.0712 14.945 37.5029 16.6017 37.5029 18.445H36.1379C36.1379 20.2883 35.7412 21.945 34.9479 23.415C34.1779 24.8617 33.1162 26.0167 31.7629 26.88C30.4095 27.72 28.8812 28.14 27.1779 28.14ZM27.8779 24.99C29.0679 24.99 30.1295 24.71 31.0629 24.15C31.9962 23.5667 32.7312 22.785 33.2679 21.805C33.8045 20.8017 34.0729 19.6817 34.0729 18.445C34.0729 17.185 33.8045 16.065 33.2679 15.085C32.7312 14.0817 31.9962 13.3 31.0629 12.74C30.1295 12.1567 29.0679 11.865 27.8779 11.865C26.7112 11.865 25.6495 12.1567 24.6929 12.74C23.7595 13.3 23.0129 14.0817 22.4529 15.085C21.9162 16.065 21.6479 17.185 21.6479 18.445C21.6479 19.6817 21.9162 20.8017 22.4529 21.805C23.0129 22.785 23.7595 23.5667 24.6929 24.15C25.6495 24.71 26.7112 24.99 27.8779 24.99ZM35.7179 28.035C35.2045 28.035 34.7729 27.8717 34.4229 27.545C34.0962 27.195 33.9329 26.7633 33.9329 26.25V20.895L34.5979 17.185L37.5029 18.445V26.25C37.5029 26.7633 37.3279 27.195 36.9779 27.545C36.6512 27.8717 36.2312 28.035 35.7179 28.035ZM49.781 28.14C48.1477 28.14 46.631 27.895 45.231 27.405C43.8543 26.8917 42.781 26.25 42.011 25.48C41.661 25.1067 41.5093 24.6867 41.556 24.22C41.626 23.73 41.8593 23.3333 42.256 23.03C42.7227 22.6567 43.1777 22.505 43.621 22.575C44.0877 22.6217 44.4843 22.82 44.811 23.17C45.2077 23.6133 45.8377 24.0333 46.701 24.43C47.5877 24.8033 48.5677 24.99 49.641 24.99C50.9943 24.99 52.021 24.7683 52.721 24.325C53.4443 23.8817 53.8177 23.31 53.841 22.61C53.8643 21.91 53.526 21.3033 52.826 20.79C52.1493 20.2767 50.901 19.8567 49.081 19.53C46.7243 19.0633 45.0093 18.3633 43.936 17.43C42.886 16.4967 42.361 15.3533 42.361 14C42.361 12.81 42.711 11.83 43.411 11.06C44.111 10.2667 45.0093 9.68333 46.106 9.31C47.2027 8.91333 48.346 8.715 49.536 8.715C51.076 8.715 52.441 8.96 53.631 9.45C54.821 9.94 55.766 10.6167 56.466 11.48C56.7927 11.8533 56.9443 12.25 56.921 12.67C56.8977 13.0667 56.6993 13.405 56.326 13.685C55.9527 13.9417 55.5093 14.0233 54.996 13.93C54.4827 13.8367 54.051 13.6267 53.701 13.3C53.1177 12.74 52.4877 12.355 51.811 12.145C51.1343 11.935 50.3527 11.83 49.466 11.83C48.4393 11.83 47.5643 12.005 46.841 12.355C46.141 12.705 45.791 13.2183 45.791 13.895C45.791 14.315 45.896 14.7 46.106 15.05C46.3393 15.3767 46.7827 15.68 47.436 15.96C48.0893 16.2167 49.046 16.4733 50.306 16.73C52.056 17.08 53.4327 17.5233 54.436 18.06C55.4627 18.5967 56.1977 19.2267 56.641 19.95C57.0843 20.65 57.306 21.4667 57.306 22.4C57.306 23.4733 57.0143 24.4417 56.431 25.305C55.871 26.1683 55.031 26.8567 53.911 27.37C52.8143 27.8833 51.4377 28.14 49.781 28.14ZM65.1799 21L63.0099 18.62L73.7549 9.03C74.1049 8.70333 74.4899 8.55167 74.9099 8.575C75.3533 8.59833 75.7266 8.785 76.0299 9.135C76.3566 9.485 76.5083 9.87 76.4849 10.29C76.4616 10.71 76.2749 11.0833 75.9249 11.41L65.1799 21ZM63.5349 28C63.0216 28 62.6016 27.8483 62.2749 27.545C61.9716 27.2183 61.8199 26.7983 61.8199 26.285V2.38C61.8199 1.86667 61.9716 1.45833 62.2749 1.155C62.6016 0.828333 63.0216 0.664999 63.5349 0.664999C64.0483 0.664999 64.4566 0.828333 64.7599 1.155C65.0866 1.45833 65.2499 1.86667 65.2499 2.38V26.285C65.2499 26.7983 65.0866 27.2183 64.7599 27.545C64.4566 27.8483 64.0483 28 63.5349 28ZM76.0299 27.825C75.6566 28.1283 75.2366 28.2567 74.7699 28.21C74.3266 28.1867 73.9533 27.9883 73.6499 27.615L66.5449 18.83L68.9949 16.52L76.2749 25.48C76.5783 25.8533 76.7066 26.2617 76.6599 26.705C76.6366 27.125 76.4266 27.4983 76.0299 27.825ZM83.8817 28C83.3683 28 82.9367 27.8367 82.5867 27.51C82.26 27.16 82.0967 26.7283 82.0967 26.215V10.64C82.0967 10.1033 82.26 9.67166 82.5867 9.345C82.9367 9.01833 83.3683 8.855 83.8817 8.855C84.4183 8.855 84.85 9.01833 85.1767 9.345C85.5033 9.67166 85.6667 10.1033 85.6667 10.64V26.215C85.6667 26.7283 85.5033 27.16 85.1767 27.51C84.85 27.8367 84.4183 28 83.8817 28ZM83.8817 5.74C83.2517 5.74 82.7033 5.51833 82.2367 5.075C81.7933 4.60833 81.5717 4.06 81.5717 3.43C81.5717 2.8 81.7933 2.26333 82.2367 1.82C82.7033 1.35333 83.2517 1.12 83.8817 1.12C84.5117 1.12 85.0483 1.35333 85.4917 1.82C85.9583 2.26333 86.1917 2.8 86.1917 3.43C86.1917 4.06 85.9583 4.60833 85.4917 5.075C85.0483 5.51833 84.5117 5.74 83.8817 5.74Z" fill="white"/>
</g>
<defs>
<filter id="filter0_d_5_92" x="0.699951" y="0.664978" width="85.4917" height="31.6151" filterUnits="userSpaceOnUse" color-interpolation-filters="sRGB">
<feFlood flood-opacity="0" result="BackgroundImageFix"/>
<feColorMatrix in="SourceAlpha" type="matrix" values="0 0 0 0 0 0 0 0 0 0 0 0 0 0 0 0 0 0 127 0" result="hardAlpha"/>
<feOffset dx="-1" dy="3"/>
<feGaussianBlur stdDeviation="0.5"/>
<feComposite in2="hardAlpha" operator="out"/>
<feColorMatrix type="matrix" values="0 0 0 0 0 0 0 0 0 0 0 0 0 0 0 0 0 0 0.25 0"/>
<feBlend mode="normal" in2="BackgroundImageFix" result="effect1_dropShadow_5_92"/>
<feBlend mode="normal" in="SourceGraphic" in2="effect1_dropShadow_5_92" result="shape"/>
</filter>
</defs>
</svg>
