<svg width="25" height="25" viewBox="0 0 29 37" fill="none" xmlns="http://www.w3.org/2000/svg">
    <path d="M5.20619 17.0206L6.86813 17.8191C6.9878 17.5698 7.04994 17.297 7.04994 17.0206H5.20619ZM2.77815 22.075L1.11622 21.2765C0.970289 21.5804 0.910403 21.9184 0.943099 22.2539L2.77815 22.075ZM6.27758 26.6696L7.06425 25.0021C7.01501 24.9788 6.96479 24.9579 6.9137 24.9392L6.27758 26.6696ZM14.9208 28.6363L14.9102 30.48H14.9311L14.9208 28.6363ZM23.5638 26.6696L22.803 24.9901L22.7772 25.0021L23.5638 26.6696ZM26.1357 24.6685L27.5736 25.8227C27.6459 25.7327 27.7096 25.6361 27.7636 25.5341L26.1357 24.6685ZM25.8481 19.5478L24.1609 20.2912C24.2074 20.3967 24.2637 20.4977 24.3289 20.5926L25.8481 19.5478ZM24.4604 14.2157L26.2958 14.0411C26.2938 14.0212 26.2916 14.0013 26.2891 13.9814L24.4604 14.2157ZM14.9208 34.7084L14.8952 36.5519C14.9122 36.5521 14.9292 36.5521 14.9461 36.5519L14.9208 34.7084ZM14.9184 2.49681C10.9575 2.49681 7.96307 4.21408 6.02966 7.00648C4.15538 9.7135 3.36244 13.2955 3.36244 17.0206H7.04994C7.04994 13.7469 7.75745 10.9889 9.0614 9.10557C10.3063 7.30765 12.168 6.18431 14.9184 6.18431V2.49681ZM3.54426 16.2222L1.11622 21.2765L4.44008 22.8734L6.86813 17.8191L3.54426 16.2222ZM0.943099 22.2539C1.21408 25.0341 3.02509 27.4383 5.64147 28.4L6.9137 24.9392C5.66369 24.4795 4.75079 23.3076 4.61319 21.896L0.943099 22.2539ZM5.49094 28.3371C8.44429 29.7305 11.6559 30.4616 14.9102 30.48L14.9311 26.7925C12.2162 26.7773 9.53421 26.1674 7.06425 25.0021L5.49094 28.3371ZM14.9311 30.48C18.1857 30.4616 21.397 29.7305 24.3505 28.3371L22.7772 25.0021C20.3073 26.1674 17.6252 26.7773 14.9102 26.7925L14.9311 30.48ZM24.3247 28.3491C25.5892 27.7761 26.7011 26.9095 27.5736 25.8227L24.6979 23.5143C24.1838 24.155 23.5341 24.6589 22.803 24.9901L24.3247 28.3491ZM27.7636 25.5341C28.9488 23.3051 28.7976 20.5828 27.3671 18.503L24.3289 20.5926C24.9774 21.5354 25.0491 22.7845 24.5078 23.8029L27.7636 25.5341ZM27.5353 18.8044C26.8715 17.2979 26.4526 15.6887 26.2958 14.0411L22.6247 14.3902C22.8187 16.4292 23.3374 18.4224 24.1609 20.2912L27.5353 18.8044ZM26.2891 13.9814C25.8965 10.9158 24.8569 8.05505 22.9625 5.9314C21.0239 3.75796 18.3096 2.49681 14.9184 2.49681V6.18431C17.3106 6.18431 19.0056 7.03487 20.2109 8.38607C21.4605 9.78705 22.3002 11.8638 22.6314 14.45L26.2891 13.9814ZM16.7621 4.34056V0.291687H13.0746V4.34056H16.7621ZM7.76596 34.1786C9.84959 35.687 12.3349 36.5165 14.8952 36.5519L14.9461 32.8648C13.152 32.84 11.4024 32.2589 9.92814 31.1917L7.76596 34.1786ZM14.9461 36.5519C17.5065 36.5165 19.9919 35.687 22.0755 34.1786L19.9132 31.1917C18.4389 32.2589 16.6896 32.84 14.8952 32.8648L14.9461 36.5519Z"
          fill="#D2CACA"/>
</svg>
