<svg width="30" height="30" viewBox="0 0 30 30" fill="none" xmlns="http://www.w3.org/2000/svg">
<path fill-rule="evenodd" clip-rule="evenodd" d="M6 7.5H15.375C16.4105 7.5 17.25 6.66053 17.25 5.625C17.25 4.58947 16.4105 3.75 15.375 3.75H6C3.92893 3.75 2.25 5.42893 2.25 7.5V22.5C2.25 24.5711 3.92893 26.25 6 26.25H21C23.0711 26.25 24.75 24.5711 24.75 22.5V18.75C24.75 17.7145 23.9106 16.875 22.875 16.875C21.8394 16.875 21 17.7145 21 18.75V22.5H6V7.5ZM27.0133 4.29917C26.2811 3.56694 25.0939 3.56694 24.3617 4.29917L14.4375 14.2234L12.9508 12.7367C12.2186 12.0044 11.0314 12.0044 10.2992 12.7367C9.56694 13.4689 9.56694 14.6561 10.2992 15.3883L13.1117 18.2008C13.4633 18.5525 13.9402 18.75 14.4375 18.75C14.9348 18.75 15.4117 18.5525 15.7633 18.2008L27.0133 6.95083C27.7455 6.21859 27.7455 5.03141 27.0133 4.29917Z" fill="#D2CACA"/>
</svg>
