<svg width="41" height="37" viewBox="0 0 41 37" fill="none" xmlns="http://www.w3.org/2000/svg">
<path d="M11.4572 6.73952H14.153C14.2431 6.74548 14.3333 6.73213 14.4178 6.70037C14.5023 6.66861 14.579 6.61917 14.6428 6.55535C14.7066 6.49154 14.756 6.41483 14.7878 6.33037C14.8196 6.2459 14.8329 6.15562 14.827 6.06557V4.04371H25.4754V6.06557C25.4694 6.15562 25.4828 6.2459 25.5146 6.33037C25.5463 6.41483 25.5958 6.49154 25.6596 6.55535C25.7234 6.61917 25.8001 6.66861 25.8846 6.70037C25.969 6.73213 26.0593 6.74548 26.1494 6.73952H28.8452C28.9352 6.74548 29.0255 6.73213 29.11 6.70037C29.1944 6.66861 29.2711 6.61917 29.3349 6.55535C29.3988 6.49154 29.4482 6.41483 29.48 6.33037C29.5117 6.2459 29.5251 6.15562 29.5191 6.06557V4.04371C29.5191 2.97125 29.0931 1.94272 28.3347 1.18438C27.5764 0.426032 26.5479 0 25.4754 0H14.827C13.7545 0 12.726 0.426032 11.9676 1.18438C11.2093 1.94272 10.7832 2.97125 10.7832 4.04371V6.06557C10.7773 6.15562 10.7906 6.2459 10.8224 6.33037C10.8542 6.41483 10.9036 6.49154 10.9674 6.55535C11.0312 6.61917 11.1079 6.66861 11.1924 6.70037C11.2769 6.73213 11.3671 6.74548 11.4572 6.73952Z" fill="#D2CACA"/>
<path d="M36.2586 7.4809H4.04371C2.97125 7.4809 1.94272 7.90693 1.18438 8.66527C0.426032 9.42362 0 10.4522 0 11.5246V32.9563C0 34.0288 0.426032 35.0573 1.18438 35.8156C1.94272 36.574 2.97125 37 4.04371 37H36.2586C37.3311 37 38.3596 36.574 39.118 35.8156C39.8763 35.0573 40.3024 34.0288 40.3024 32.9563V11.5246C40.2767 10.4602 39.8424 9.44653 39.0896 8.69368C38.3367 7.94083 37.323 7.50655 36.2586 7.4809ZM30.3953 18.3315L18.6685 30.0583C18.4567 30.2719 18.2048 30.4414 17.9271 30.557C17.6495 30.6727 17.3517 30.7323 17.051 30.7323C16.7502 30.7323 16.4525 30.6727 16.1749 30.557C15.8972 30.4414 15.6453 30.2719 15.4335 30.0583L9.77231 24.3971C9.66038 24.2942 9.57103 24.1692 9.50991 24.03C9.44879 23.8908 9.41722 23.7404 9.41722 23.5884C9.41722 23.4363 9.44879 23.2859 9.50991 23.1467C9.57103 23.0075 9.66038 22.8825 9.77231 22.7796L11.3898 21.1621C11.4927 21.0502 11.6177 20.9609 11.7569 20.8997C11.8961 20.8386 12.0465 20.807 12.1985 20.807C12.3506 20.807 12.501 20.8386 12.6402 20.8997C12.7794 20.9609 12.9044 21.0502 13.0073 21.1621L17.051 25.2058L27.1603 15.0966C27.2632 14.9846 27.3882 14.8953 27.5274 14.8342C27.6666 14.773 27.817 14.7415 27.969 14.7415C28.1211 14.7415 28.2714 14.773 28.4107 14.8342C28.5499 14.8953 28.6749 14.9846 28.7778 15.0966L30.3953 16.714C30.5915 16.9378 30.6996 17.2252 30.6996 17.5228C30.6996 17.8204 30.5915 18.1078 30.3953 18.3315Z" fill="#D2CACA"/>
</svg>
